<mxfile host="65bd71144e">
    <diagram id="C9Dj1ZqMyHlHZ12Mr1-9" name="ページ1">
        <mxGraphModel dx="766" dy="607" grid="1" gridSize="10" guides="1" tooltips="1" connect="1" arrows="1" fold="1" page="1" pageScale="1" pageWidth="827" pageHeight="1169" math="0" shadow="0">
            <root>
                <object label="" id="2" parent="1" value="" style="edgeStyle=none;html=1;" vertex="1" x="224" y="30" width="380" height="450" as="geometry" edge="1" source="2" target="23" relative="1">
                    <mxCell id="2" value="ユーザー" style="shape=umlActor;verticalLabelPosition=bottom;verticalAlign=top;html=1;outlineConnect=0;" vertex="1" parent="1">
                        <mxGeometry x="80" y="200" width="60" height="110" as="geometry"/>
                    </mxCell>
                    <mxCell id="5" value="管理者" style="shape=umlActor;verticalLabelPosition=bottom;verticalAlign=top;html=1;outlineConnect=0;" vertex="1" parent="1">
                        <mxGeometry x="670" y="200" width="60" height="110" as="geometry"/>
                    </mxCell>
                    <mxCell id="16" value="ECサイト" style="text;html=1;strokeColor=none;fillColor=none;align=center;verticalAlign=middle;whiteSpace=wrap;rounded=0;" vertex="1" parent="1">
                        <mxGeometry x="380" y="40" width="60" height="30" as="geometry"/>
                    </mxCell>
                    <mxCell id="29" value="" style="edgeStyle=none;html=1;" edge="1" parent="1" source="2" target="18">
                        <mxGeometry relative="1" as="geometry">
                            <mxPoint x="160" y="240" as="sourcePoint"/>
                        </mxGeometry>
                    </mxCell>
                    <mxCell id="18" value="商品を探す" style="ellipse;whiteSpace=wrap;html=1;" vertex="1" parent="1">
                        <mxGeometry x="230" y="65" width="92" height="60" as="geometry"/>
                    </mxCell>
                    <mxCell id="20" value="商品を登録する" style="ellipse;whiteSpace=wrap;html=1;flipV=1;" vertex="1" parent="1">
                        <mxGeometry x="508" y="65" width="92" height="60" as="geometry"/>
                    </mxCell>
                    <mxCell id="30" value="" style="edgeStyle=none;html=1;" edge="1" parent="1" source="2" target="21">
                        <mxGeometry relative="1" as="geometry"/>
                    </mxCell>
                    <mxCell id="21" value="会員登録する" style="ellipse;whiteSpace=wrap;html=1;" vertex="1" parent="1">
                        <mxGeometry x="230" y="275" width="92" height="60" as="geometry"/>
                    </mxCell>
                    <mxCell id="27" value="" style="edgeStyle=none;html=1;" edge="1" parent="1" source="2" target="22">
                        <mxGeometry relative="1" as="geometry"/>
                    </mxCell>
                    <mxCell id="22" value="商品を見る" style="ellipse;whiteSpace=wrap;html=1;" vertex="1" parent="1">
                        <mxGeometry x="230" y="135" width="92" height="60" as="geometry"/>
                    </mxCell>
                    <mxCell id="23" value="商品を買う" style="ellipse;whiteSpace=wrap;html=1;" vertex="1" parent="1">
                        <mxGeometry x="230" y="205" width="92" height="60" as="geometry"/>
                    </mxCell>
                    <mxCell id="24" value="ログインする&lt;br&gt;ログアウトする" style="ellipse;whiteSpace=wrap;html=1;" vertex="1" parent="1">
                        <mxGeometry x="230" y="345" width="92" height="60" as="geometry"/>
                    </mxCell>
                    <mxCell id="26" value="" style="edgeStyle=none;html=1;" edge="1" parent="1" source="2" target="23">
                        <mxGeometry relative="1" as="geometry"/>
                    </mxCell>
                    <mxCell id="31" value="" style="endArrow=classic;html=1;entryX=0;entryY=0;entryDx=0;entryDy=0;" edge="1" parent="1" source="2" target="24">
                        <mxGeometry width="50" height="50" relative="1" as="geometry">
                            <mxPoint x="370" y="330" as="sourcePoint"/>
                            <mxPoint x="420" y="280" as="targetPoint"/>
                        </mxGeometry>
                    </mxCell>
                    <mxCell id="34" value="商品を管理する" style="ellipse;whiteSpace=wrap;html=1;flipV=1;" vertex="1" parent="1">
                        <mxGeometry x="508" y="147" width="92" height="60" as="geometry"/>
                    </mxCell>
                    <mxCell id="35" value="商品を発送する" style="ellipse;whiteSpace=wrap;html=1;flipV=1;" vertex="1" parent="1">
                        <mxGeometry x="508" y="228" width="92" height="60" as="geometry"/>
                    </mxCell>
                    <mxCell id="36" value="会員を管理する" style="ellipse;whiteSpace=wrap;html=1;flipV=1;" vertex="1" parent="1">
                        <mxGeometry x="508" y="310" width="92" height="60" as="geometry"/>
                    </mxCell>
                    <mxCell id="37" value="" style="endArrow=classic;html=1;entryX=1;entryY=0.5;entryDx=0;entryDy=0;" edge="1" parent="1" source="5" target="20">
                        <mxGeometry width="50" height="50" relative="1" as="geometry">
                            <mxPoint x="370" y="310" as="sourcePoint"/>
                            <mxPoint x="420" y="260" as="targetPoint"/>
                        </mxGeometry>
                    </mxCell>
                    <mxCell id="38" value="" style="endArrow=classic;html=1;entryX=1;entryY=0.5;entryDx=0;entryDy=0;" edge="1" parent="1" target="34">
                        <mxGeometry width="50" height="50" relative="1" as="geometry">
                            <mxPoint x="660" y="220" as="sourcePoint"/>
                            <mxPoint x="610" y="105" as="targetPoint"/>
                        </mxGeometry>
                    </mxCell>
                    <mxCell id="39" value="" style="endArrow=classic;html=1;entryX=1;entryY=0.5;entryDx=0;entryDy=0;" edge="1" parent="1" target="35">
                        <mxGeometry width="50" height="50" relative="1" as="geometry">
                            <mxPoint x="660" y="250" as="sourcePoint"/>
                            <mxPoint x="610" y="260" as="targetPoint"/>
                        </mxGeometry>
                    </mxCell>
                    <mxCell id="40" value="" style="endArrow=classic;html=1;entryX=1.007;entryY=0.689;entryDx=0;entryDy=0;entryPerimeter=0;" edge="1" parent="1" source="5" target="36">
                        <mxGeometry width="50" height="50" relative="1" as="geometry">
                            <mxPoint x="700" y="237" as="sourcePoint"/>
                            <mxPoint x="630" y="125" as="targetPoint"/>
                        </mxGeometry>
                    </mxCell>
                    <mxCell id="41" value="" style="endArrow=classic;html=1;entryX=1;entryY=0.5;entryDx=0;entryDy=0;exitX=1;exitY=0.5;exitDx=0;exitDy=0;" edge="1" parent="1" source="18" target="23">
                        <mxGeometry width="50" height="50" relative="1" as="geometry">
                            <mxPoint x="660" y="360" as="sourcePoint"/>
                            <mxPoint x="650" y="410" as="targetPoint"/>
                            <Array as="points">
                                <mxPoint x="400" y="95"/>
                                <mxPoint x="400" y="235"/>
                            </Array>
                        </mxGeometry>
                    </mxCell>
                    <mxCell id="42" value="" style="endArrow=none;html=1;exitX=1;exitY=0.5;exitDx=0;exitDy=0;" edge="1" parent="1" source="22">
                        <mxGeometry width="50" height="50" relative="1" as="geometry">
                            <mxPoint x="370" y="310" as="sourcePoint"/>
                            <mxPoint x="400" y="165" as="targetPoint"/>
                        </mxGeometry>
                    </mxCell>
                </object>
            </root>
        </mxGraphModel>
    </diagram>
</mxfile>